<!-- Generated by IcoMoon.io -->
<svg version="1.1" xmlns="http://www.w3.org/2000/svg" width="640" height="640" viewBox="0 0 640 640">
<g id="icomoon-ignore">
</g>
<path fill="#000" d="M576 96h-305.728c-14.080 0-34.272 7.552-44.864 16.8l-217.472 190.336c-10.592 9.248-10.592 24.448 0 33.696l217.472 190.304c10.592 9.248 30.784 16.864 44.864 16.864h305.728c35.2 0 64-28.8 64-64v-320c0-35.2-28.8-64-64-64zM486.112 448l-81.824-81.824-81.792 81.824-46.176-46.176 81.792-81.824-81.792-81.824 46.176-46.176 81.824 81.76 81.76-81.76 46.208 46.176-81.792 81.824 81.824 81.76-46.208 46.24z"></path>
</svg>
