<?xml version="1.0" standalone="no"?>
<!DOCTYPE svg PUBLIC "-//W3C//DTD SVG 20010904//EN"
 "http://www.w3.org/TR/2001/REC-SVG-20010904/DTD/svg10.dtd">
<svg version="1.0" xmlns="http://www.w3.org/2000/svg"
 width="512.000000pt" height="512.000000pt" viewBox="0 0 512.000000 512.000000"
 preserveAspectRatio="xMidYMid meet">
<metadata>
Created by potrace 1.14, written by Peter Selinger 2001-2017
</metadata>
<g transform="translate(0.000000,512.000000) scale(0.100000,-0.100000)"
fill="#000000" stroke="none">
<path d="M1505 4229 c-151 -7 -185 -19 -248 -81 -54 -54 -72 -113 -70 -223 2
-152 78 -250 210 -270 21 -4 47 -8 58 -10 11 -2 22 -4 25 -4 9 -1 4 -1933 -5
-1966 -19 -71 -80 -155 -111 -155 -6 0 -16 -6 -22 -13 -6 -7 -21 -14 -34 -15
-25 -2 -63 -10 -63 -12 0 -1 -74 -3 -165 -4 -175 -3 -227 -12 -281 -49 -32
-22 -84 -88 -87 -111 -1 -6 -5 -29 -10 -51 -9 -44 -8 -143 2 -189 15 -63 75
-146 106 -146 6 0 10 -4 10 -9 0 -5 26 -15 58 -23 56 -13 358 -17 477 -5 130
13 337 82 389 129 11 10 23 18 27 18 15 0 116 100 145 142 16 24 31 45 34 48
8 8 50 97 50 106 0 5 6 20 13 34 15 28 33 96 43 155 3 21 8 47 11 59 12 43 10
2438 -2 2470 -31 87 -90 146 -167 166 -59 15 -200 18 -393 9z"/>
<path d="M3067 4234 c-1 -1 -33 -4 -72 -8 -76 -6 -108 -12 -170 -27 -62 -15
-185 -63 -185 -71 0 -5 -9 -8 -19 -8 -11 0 -21 -3 -23 -7 -1 -5 -22 -21 -44
-36 -85 -57 -178 -178 -222 -287 -30 -72 -59 -189 -68 -275 -10 -83 -9 -1044
1 -1130 14 -133 71 -295 137 -394 32 -48 153 -171 168 -171 5 0 15 -6 22 -12
35 -34 176 -89 293 -114 70 -15 154 -17 692 -19 431 -1 625 1 655 9 127 34
186 113 192 256 7 154 -40 252 -142 296 -53 24 -64 24 -662 28 -300 2 -558 7
-575 11 -107 28 -174 102 -191 210 -10 68 -11 845 -1 924 14 109 58 174 147
215 44 20 60 21 550 23 278 1 541 3 584 4 199 6 292 107 289 314 -1 75 -34
160 -76 197 -20 17 -75 51 -87 53 -3 1 -21 5 -40 10 -26 6 -1145 15 -1153 9z"/>
<path d="M3235 1452 c-22 -9 -41 -20 -43 -24 -2 -4 -9 -8 -16 -8 -20 0 -77
-71 -104 -128 -104 -228 124 -471 365 -390 157 53 242 245 173 392 -28 58 -92
125 -145 151 -54 26 -175 30 -230 7z"/>
</g>
</svg>
