<!-- Generated by IcoMoon.io -->
<svg version="1.1" xmlns="http://www.w3.org/2000/svg" width="32" height="32" viewBox="0 0 32 32">
<path d="M9.302 5.555c-0.003 0.003-0.125 0.013-0.269 0.022-0.502 0.035-0.906 0.195-1.171 0.458-0.147 0.147-0.355 0.512-0.394 0.685-0.083 0.406-0.093 0.858-0.022 1.197 0.173 0.826 0.787 1.274 1.77 1.296l0.080 0.003-0.003 5.914c-0.003 3.251-0.013 5.997-0.026 6.102-0.090 0.864-0.579 1.382-1.411 1.504-0.086 0.013-0.461 0.026-0.832 0.032-1.075 0.016-1.235 0.022-1.456 0.074-0.794 0.176-1.206 0.742-1.229 1.69-0.013 0.531 0.058 0.886 0.246 1.203 0.096 0.163 0.282 0.355 0.438 0.458 0.138 0.086 0.448 0.205 0.621 0.234 0.179 0.032 2.438 0.029 2.749-0.003 0.214-0.019 0.522-0.070 0.858-0.134 0.176-0.032 0.662-0.182 0.893-0.275 0.554-0.221 0.998-0.515 1.427-0.941 0.339-0.336 0.525-0.589 0.742-1.008 0.355-0.682 0.547-1.405 0.64-2.384 0.029-0.32 0.029-14.573 0-14.768-0.054-0.371-0.211-0.694-0.442-0.918-0.189-0.186-0.406-0.301-0.739-0.39-0.218-0.058-0.323-0.064-1.35-0.058-0.614 0.003-1.117 0.010-1.12 0.010z"></path>
<path d="M18.877 5.549c-0.006 0.006-0.102 0.022-0.211 0.032-0.368 0.038-0.71 0.099-1.11 0.195-0.736 0.176-1.603 0.659-2.099 1.168-0.643 0.659-1.11 1.68-1.267 2.768-0.010 0.070-0.022 0.163-0.032 0.208-0.048 0.278-0.061 1.046-0.061 3.664 0.003 1.619 0.013 3.053 0.026 3.184 0.157 1.536 0.589 2.586 1.398 3.392 0.752 0.752 1.763 1.184 3.104 1.331 0.115 0.013 0.253 0.026 0.304 0.032 0.054 0.006 1.702 0.013 3.664 0.016 3.232 0 3.59-0.003 3.808-0.051 0.858-0.192 1.264-0.758 1.261-1.76-0.003-0.986-0.349-1.546-1.101-1.779-0.291-0.090-0.48-0.096-4.080-0.109-1.741-0.006-3.21-0.019-3.264-0.029-0.435-0.080-0.685-0.192-0.915-0.41-0.198-0.182-0.294-0.342-0.403-0.65l-0.090-0.256v-2.896c0-1.594 0.010-2.957 0.022-3.030 0.093-0.528 0.406-0.982 0.813-1.174 0.41-0.195 0.285-0.189 4.013-0.195 1.875-0.003 3.472-0.016 3.552-0.029 0.698-0.112 1.149-0.48 1.344-1.091 0.096-0.301 0.118-0.954 0.045-1.28-0.115-0.506-0.381-0.858-0.797-1.056-0.122-0.061-0.259-0.115-0.304-0.125-0.045-0.006-0.15-0.029-0.24-0.048-0.147-0.029-7.347-0.051-7.379-0.022z"></path>
<path d="M20.64 22.819c-0.698 0.074-1.318 0.621-1.539 1.354-0.093 0.301-0.070 0.797 0.051 1.091 0.224 0.557 0.618 0.934 1.162 1.12 0.301 0.102 0.829 0.106 1.126 0.003 0.467-0.16 0.851-0.493 1.082-0.941 0.077-0.144 0.131-0.262 0.122-0.262-0.006 0 0.006-0.064 0.029-0.138 0.051-0.17 0.042-0.685-0.013-0.886-0.118-0.41-0.429-0.829-0.803-1.078-0.307-0.205-0.79-0.31-1.216-0.262z"></path>
</svg>
