<?xml version="1.0" encoding="UTF-8" standalone="no"?>
<!-- Generated by IcoMoon.io -->

<svg
   version="1.1"
   width="512"
   height="512"
   viewBox="0 0 512 512"
   id="svg5"
   sodipodi:docname="power.svg"
   inkscape:version="1.2.2 (b0a8486541, 2022-12-01)"
   xmlns:inkscape="http://www.inkscape.org/namespaces/inkscape"
   xmlns:sodipodi="http://sodipodi.sourceforge.net/DTD/sodipodi-0.dtd"
   xmlns="http://www.w3.org/2000/svg"
   xmlns:svg="http://www.w3.org/2000/svg">
  <defs
     id="defs9" />
  <sodipodi:namedview
     id="namedview7"
     pagecolor="#ffffff"
     bordercolor="#000000"
     borderopacity="0.25"
     inkscape:showpageshadow="2"
     inkscape:pageopacity="0.0"
     inkscape:pagecheckerboard="0"
     inkscape:deskcolor="#d1d1d1"
     showgrid="false"
     inkscape:zoom="1.1628592"
     inkscape:cx="155.22086"
     inkscape:cy="279.91351"
     inkscape:window-width="1920"
     inkscape:window-height="1001"
     inkscape:window-x="0"
     inkscape:window-y="0"
     inkscape:window-maximized="1"
     inkscape:current-layer="svg5" />
  <g
     id="icomoon-ignore"
     transform="matrix(0.70632511,0,0,0.70632511,75.180772,75.180772)" />
  <path
     d="m 301.2048,126.95017 v 48.01527 c 12.78661,5.58138 24.5448,13.56427 34.7067,23.72546 21.34585,21.34515 33.10051,49.72529 33.10051,79.91151 0,30.18621 -11.75536,58.56635 -33.10051,79.9115 -21.34514,21.34514 -49.72458,33.10051 -79.9115,33.10051 -30.18692,0 -58.56636,-11.75537 -79.9115,-33.10051 -21.34515,-21.34515 -33.10051,-49.72529 -33.10051,-79.9115 0,-30.18622 11.75536,-58.56636 33.10051,-79.91151 10.1619,-10.1619 21.92009,-18.14478 34.7067,-23.72617 v -48.01456 c -65.35203,19.45219 -113.012025,79.98142 -113.012025,151.65224 0,87.38089 70.836645,158.21681 158.216825,158.21681 87.38018,0 158.21683,-70.83592 158.21683,-158.21681 0,-71.67082 -47.65929,-132.20005 -113.01203,-151.65224 z M 233.39759,75.180772 h 45.20482 V 256 h -45.20482 z"
     id="path3"
     style="stroke-width:0.706325" />
</svg>
